# xmcd
#
# Track frame offsets: 
#        150
#        14767
#        31535
#        51484
#        69822
#        83224
#        97890
#        116497
#        130486
#        145686
#        174168
#        194251
#
# Disc length: 2739 seconds
#
# Revision: 0
# Processed by: cddbd v1.5.2PL0 Copyright (c) Steve Scherf et al.
# Submitted via: ExactAudioCopy v0.95b4
#
DISCID=970ab10c
DTITLE=Ben Weaver - The Ax In The Oak
DYEAR=2008
DGENRE=Country
TTITLE0=White Snow
TTITLE1=Red Red Fox
TTITLE2=Soldiers War
TTITLE3=Anything With Words
TTITLE4=Pretty Girl
TTITLE5=Hawks and Crows
TTITLE6=Dead Bird
TTITLE7=Said in Stones
TTITLE8=Alligators and Owls
TTITLE9=Hey Ray
TTITLE10=Out Behind the House
TTITLE11=The History Of Weater
EXTD=
EXTT0=
EXTT1=
EXTT2=
EXTT3=
EXTT4=
EXTT5=
EXTT6=
EXTT7=
EXTT8=
EXTT9=
EXTT10=
EXTT11=
PLAYORDER=
